<?xml version="1.0" standalone="no"?><!-- Generator: Gravit.io --><svg xmlns="http://www.w3.org/2000/svg" xmlns:xlink="http://www.w3.org/1999/xlink" style="isolation:isolate" viewBox="0 0 16 16" width="16" height="16"><defs><clipPath id="_clipPath_wjUXW4x6JXeIWCdw2JlOsDrIvKpawyoa"><rect width="16" height="16"/></clipPath></defs><g clip-path="url(#_clipPath_wjUXW4x6JXeIWCdw2JlOsDrIvKpawyoa)"><path d=" M 3 13 L 3 14 L 1 14 L 1 13 L 1 7.14 L 1 6.01 C 0.99 5.21 1.3 4.43 1.87 3.87 C 2.43 3.3 3.21 2.99 4.01 3 L 5.14 3 L 5.14 5 L 4 5 C 4 5 3.99 5 3.99 5 C 3.72 5 3.47 5.1 3.28 5.28 C 3.1 5.47 3 5.72 3 5.99 C 3 5.99 3 6 3 6 L 3 7.14 L 3 13 Z  M 6 4.01 L 11 2.01 L 12 4.01 L 15 4.01 L 10 6.01 L 9 4.01 L 6 4.01 Z " fill-rule="evenodd" fill="rgb(0,0,0)"/></g></svg>