<?xml version="1.0" standalone="no"?><!-- Generator: Gravit.io --><svg xmlns="http://www.w3.org/2000/svg" xmlns:xlink="http://www.w3.org/1999/xlink" style="isolation:isolate" viewBox="0 0 48 48" width="48" height="48"><defs><clipPath id="_clipPath_GxGLoK4tTYpGM90WYRudnOapw3J3vjp7"><rect width="48" height="48"/></clipPath></defs><g clip-path="url(#_clipPath_GxGLoK4tTYpGM90WYRudnOapw3J3vjp7)"><defs><filter id="y4Ox2N1aan2v6FZU1iynrUtcb3APfTGn" x="-200%" y="-200%" width="400%" height="400%" filterUnits="objectBoundingBox" color-interpolation-filters="sRGB"><feGaussianBlur xmlns="http://www.w3.org/2000/svg" in="SourceGraphic" stdDeviation="2.146804531419514"/><feOffset xmlns="http://www.w3.org/2000/svg" dx="0" dy="1" result="pf_100_offsetBlur"/><feFlood xmlns="http://www.w3.org/2000/svg" flood-color="#000000" flood-opacity="0.35"/><feComposite xmlns="http://www.w3.org/2000/svg" in2="pf_100_offsetBlur" operator="in" result="pf_100_dropShadow"/><feBlend xmlns="http://www.w3.org/2000/svg" in="SourceGraphic" in2="pf_100_dropShadow" mode="normal"/></filter></defs><g filter="url(#y4Ox2N1aan2v6FZU1iynrUtcb3APfTGn)"><linearGradient id="_lgradient_2" x1="0.24687499999999998" y1="0.14466489610998282" x2="0.7156250000000001" y2="1.1308389314169662" gradientTransform="matrix(40,0,0,32.005,4,7.995)" gradientUnits="userSpaceOnUse"><stop offset="0%" stop-opacity="1" style="stop-color:rgb(255,255,0)"/><stop offset="100%" stop-opacity="1" style="stop-color:rgb(255,145,0)"/></linearGradient><path d=" M 8 33.995 L 40 33.995 L 44 7.995 L 34 18 L 24 7.995 L 14 18 L 4 7.995 L 8 33.995 Z  M 8 36 L 40 36 L 40 40 L 8 40 L 8 36 Z " fill-rule="evenodd" fill="url(#_lgradient_2)"/></g><defs><filter id="Lin0rRBm5W3ieY7flAdJ0zhan7e9Jyte" x="-200%" y="-200%" width="400%" height="400%" filterUnits="objectBoundingBox" color-interpolation-filters="sRGB"><feGaussianBlur xmlns="http://www.w3.org/2000/svg" in="SourceGraphic" stdDeviation="2.146804531419514"/><feOffset xmlns="http://www.w3.org/2000/svg" dx="0" dy="1" result="pf_100_offsetBlur"/><feFlood xmlns="http://www.w3.org/2000/svg" flood-color="#000000" flood-opacity="0.35"/><feComposite xmlns="http://www.w3.org/2000/svg" in2="pf_100_offsetBlur" operator="in" result="pf_100_dropShadow"/><feBlend xmlns="http://www.w3.org/2000/svg" in="SourceGraphic" in2="pf_100_dropShadow" mode="normal"/></filter></defs><g filter="url(#Lin0rRBm5W3ieY7flAdJ0zhan7e9Jyte)"><path d=" M 19 29 L 19 30 L 17 30 L 17 29 L 17 23.14 L 17 22.01 C 16.99 21.21 17.3 20.43 17.87 19.87 C 18.43 19.3 19.21 18.99 20.01 19 L 21.14 19 L 21.14 21 L 20 21 C 20 21 19.99 21 19.99 21 C 19.72 21 19.47 21.1 19.28 21.28 C 19.1 21.47 19 21.72 19 21.99 C 19 21.99 19 22 19 22 L 19 23.14 L 19 29 Z  M 22 20.01 L 27 18.01 L 28 20.01 L 31 20.01 L 26 22.01 L 25 20.01 L 22 20.01 Z " fill-rule="evenodd" fill="rgb(0,0,0)"/></g></g></svg>